# xmcd CD database file
#
# Track frame offsets:
#	150
#	9901
#	25598
#	37969
#	55070
#	64179
#	80910
#	97713
#	113352
#	127905
#	145609
#	159480
#	169123
#	184016
#	197608
#	210324
#	225916
#	245129
#	256308
#
# Disc length: 3609 seconds
#
# Revision: 7
# Processed by: cddbd v1.4PL0 Copyright (c) Steve Scherf et al.
# Submitted via: CDex 1.50beta10
#
DISCID=e00e1713
DTITLE=Various Artist - Prvni velky cesky country zpevnik T - V
DYEAR=2002
DGENRE=Country
TTITLE0=Drobek - Toulam se
TTITLE1=J.Mateju,J.Mikesova - Trh ve Scaraborough
TTITLE2=V.Hrubec - Tri krize
TTITLE3=Drobek - Tam u nebeskych bran
TTITLE4=Montgomery - U tri louzi
TTITLE5=Drobek - Usta do podkovy
TTITLE6=K.Peterka - Uz zase sam
TTITLE7=Drobek - Uragan
TTITLE8=A-band - Uz konicek padi
TTITLE9=Drobek - Ukolebavka
TTITLE10=Josef Zoch - Ved me dal cesto ma
TTITLE11=Drobek - Vejplata
TTITLE12=J.Zoch - V prave poledne
TTITLE13=B.Psenickova,K.Zapotocky - Vsem laskam
TTITLE14=Drobek - V ulickach mesta Bakersfield
TTITLE15=Nada Urbankova - Vilem pece housky
TTITLE16=Drobek - Vsichni jsou uz v Mexiku
TTITLE17=M.Hoffmann - Vuz do Tennessee
TTITLE18=Paberky - Volam
EXTD=YEAR: 2002
EXTT0=
EXTT1=
EXTT2=
EXTT3=
EXTT4=
EXTT5=
EXTT6=
EXTT7=
EXTT8=
EXTT9=
EXTT10=
EXTT11=
EXTT12=
EXTT13=
EXTT14=
EXTT15=
EXTT16=
EXTT17=
EXTT18=
PLAYORDER=
